<?xml version="1.0" encoding="UTF-8" standalone="no"?>
<!-- Created with Inkscape (http://www.inkscape.org/) -->

<svg
   xmlns:dc="http://purl.org/dc/elements/1.1/"
   xmlns:cc="http://creativecommons.org/ns#"
   xmlns:rdf="http://www.w3.org/1999/02/22-rdf-syntax-ns#"
   xmlns:svg="http://www.w3.org/2000/svg"
   xmlns="http://www.w3.org/2000/svg"
   xmlns:sodipodi="http://sodipodi.sourceforge.net/DTD/sodipodi-0.dtd"
   xmlns:inkscape="http://www.inkscape.org/namespaces/inkscape"
   width="40.726303mm"
   height="36.015629mm"
   viewBox="0 0 40.726303 36.015629"
   version="1.1"
   id="svg8"
   inkscape:version="0.92.3 (2405546, 2018-03-11)"
   sodipodi:docname="kmeans_sec_sqr.svg">
  <defs
     id="defs2" />
  <sodipodi:namedview
     id="base"
     pagecolor="#ffffff"
     bordercolor="#666666"
     borderopacity="1.0"
     inkscape:pageopacity="0.0"
     inkscape:pageshadow="2"
     inkscape:zoom="1.979899"
     inkscape:cx="91.661275"
     inkscape:cy="142.3811"
     inkscape:document-units="mm"
     inkscape:current-layer="layer1"
     showgrid="false"
     fit-margin-top="0"
     fit-margin-left="0"
     fit-margin-right="0"
     fit-margin-bottom="0"
     inkscape:window-width="1600"
     inkscape:window-height="1137"
     inkscape:window-x="-8"
     inkscape:window-y="-8"
     inkscape:window-maximized="1" />
  <metadata
     id="metadata5">
    <rdf:RDF>
      <cc:Work
         rdf:about="">
        <dc:format>image/svg+xml</dc:format>
        <dc:type
           rdf:resource="http://purl.org/dc/dcmitype/StillImage" />
        <dc:title></dc:title>
      </cc:Work>
    </rdf:RDF>
  </metadata>
  <g
     inkscape:label="Layer 1"
     inkscape:groupmode="layer"
     id="layer1"
     transform="translate(-40.573269,-347.03699)">
    <g
       id="g18"
       transform="matrix(0.55004712,0,0,0.55004712,45.379646,347.10164)">
      <path
         inkscape:connector-curvature="0"
         id="path2"
         d="m 21.159918,11.585364 c -0.16,5.38 -4.34,9.49 -9.59,9.46 -5.6199991,-0.04 -10.93999912,-5.37 -10.90999912,-10.920001 0.03,-5.3899995 4.54000002,-9.65999947 10.05999912,-9.53999947 6.16,0.12 10.63,4.83999997 10.44,11.00000047 z m -4.24,-2.0600005 c 0.26,-5.25 -2.61,-7.61 -5.53,-5.92 -3.9399991,2.29 -6.3099991,5.89 -6.2099991,10.5200005 0.03,1.29 1.39,3.02 2.6,3.66 0.99,0.52 3.2699991,0.19 3.9399991,-0.62 2.24,-2.72 4.01,-5.83 5.2,-7.6400005 z"
         class="shape-path" />
      <circle
         style="fill:#ffff00;fill-opacity:0.5;stroke:#0000ff"
         id="circle4"
         r="10.501104"
         cy="10.883573"
         cx="10.883573" />
    </g>
    <g
       id="g28"
       transform="matrix(0.27638044,0,0,0.27638044,40.819193,363.64734)">
      <path
         inkscape:connector-curvature="0"
         id="path2-2"
         d="m 19.637748,36.727517 c 7.61,-7.69 14.89,-14.75 21.810001,-22.15 3.18,-3.4 5.44,-3.3 8.51,0.02 4.74,5.13 9.73,10.04 14.79,14.86 2.54,2.43 2.36,4.23 -0.08,6.61 -7.98,7.79 -15.74,15.810002 -23.72,23.600002 -5.350001,5.22 -12.990001,5.22 -18.260001,-0.22 -1.5,-1.55 -2.92,-4.9 -2.22,-6.43 0.87,-1.87 3.89,-3.46 6.18,-3.8 4.44,-0.670002 8.15,1.77 14.370001,8.4 3.55,-3.97 7.22,-7.79 10.47,-11.950002 0.7,-0.9 0.47,-3.56 -0.36,-4.47 -4.38,-4.78 -9.15,-9.2 -13.660001,-13.88 -1.94,-2.02 -3.42,-2.02 -5.36,0.01 -3.91,4.09 -7.92,8.09 -12.02,12 -5.349999,5.09 -13.9999983,4.7 -18.6099983,-1.09 -1.27000006,-1.6 -2.37000006,-4.74 -1.63000006,-6.18 0.90000004,-1.74 3.77000006,-3.22 5.91000006,-3.41 5.7999993,-0.51 10.1399993,2.51 13.8799983,8.08 z m 40.160001,-0.34 c -0.52,0.46 -1.03,0.93 -1.55,1.39 -5.91,-5.96 -11.82,-11.93 -17.73,-17.89 0.49,-0.47 0.98,-0.93 1.47,-1.4 5.93,5.96 11.87,11.93 17.81,17.9 z"
         class="shape-path" />
      <circle
         style="fill:#ffff00;fill-opacity:0.5;stroke:#0000ff"
         id="circle4-7"
         r="33.483253"
         cy="33.093452"
         cx="33.093452" />
    </g>
    <g
       id="g40"
       transform="matrix(0.26458333,0,0,0.26458333,62.992509,363.64666)">
      <path
         inkscape:connector-curvature="0"
         id="path2-3"
         d="m 26.607699,61.82264 c -8.03,-6.22 -12.71,-12.47 -12.99,-21.14 -0.21,-6.579999 2.72,-11.199999 9.15,-12.429999 5.47,-1.05 11.27,-1.17 16.84,-0.69 3.56,0.3 5.65,-0.06 7.97,-3.03 5.04,-6.46 11.64,-10.2 20.21,-9.22 1.95,11.43 -5.8,20.93 -17.03,21.3 -2.5,0.08 -5.09,-0.39 -7.47,0.13 -3.04,0.66 -4.44,6.219999 -2.5,8.929999 2.97,4.16 4.87,8.58 2,13.43 -2.92,4.96 -7.74,4.37 -12.48,3.49 -0.81,-0.15 -1.61,-0.3 -2.61,-0.49 -0.75,1.13 -1.6,2.16 -2.19,3.32 -2.15,4.22 -5.07,7.03 -10.27,6.03 -5.2999997,-1.02 -10.8199997,-5.99 -11.5499997,-10.59 -0.58,-3.67 0.27,-6.75 4.44,-7.66 3.4199997,-0.74 7.2499997,1.99 7.6599997,5.56 0.48,4.23 -1.7,6.17 -5.8999997,6 -0.28,-0.01 -0.57,0.22 -1.41,1.71 3.0199997,1.07 6.4999997,3.61 8.9599997,2.86 3.29,-1.01 5.79,-4.57 9.17,-7.51 z m 13.59,-25.889999 c -10.56,-4.1 -20.82,-2.15 -23.05,4.119999 -2.37,6.67 2.48,15.85 10,18.41 2.17,-3.76 4.38,-7.57 7.14,-12.36 -2.95,-0.55 -5.48,-1.83 -7.12,-1.1 -1.78,0.79 -2.73,3.45 -4.04,5.29 -0.8,-2.66 -1.44,-6.06 -0.03,-7.93 3.81,-5.069999 8.99,-2.13 13.96,-0.8 1.08,-1.94 2.09,-3.759999 3.14,-5.629999 z m 7.68,-7.98 c 0.23,0.65 0.45,1.3 0.68,1.95 4.6,-0.88 9.29,-1.46 13.73,-2.86 1.21,-0.38 2.05,-3.17 2.22,-4.93 0.06,-0.6 -2.55,-2.24 -3.73,-2.07 -5.38,0.82 -9.8,3.44 -12.9,7.91 z m -18.82,31.389999 c 3.52,1.36 6.16,0.82 8.14,-1.78 2.38,-3.14 1.55,-6.03 -1.49,-9.25 -2.3,3.8 -4.31,7.13 -6.65,11.03 z"
         class="shape-path" />
      <circle
         style="fill:#ffff00;fill-opacity:0.5;stroke:#0000ff"
         id="circle4-9"
         r="21.860363"
         cy="21.535284"
         cx="46.831692" />
      <circle
         style="fill:#ffff00;fill-opacity:0.5;stroke:#0000ff"
         id="circle6"
         r="22.547592"
         cy="50.297768"
         cx="22.222513" />
    </g>
    <g
       id="g58"
       transform="matrix(0.49921051,0,0,0.49921051,57.771903,348.99625)">
      <path
         inkscape:connector-curvature="0"
         id="path2-26"
         d="m 44.424336,1.6902582 c -0.74,0.99 -1.37,2.09 -2.24,2.96 -8.7,8.7499998 -17.46,17.4399998 -26.17,26.1799998 -3.29,3.31 -6.9400002,4.42 -11.3400002,2.38 -3.15,-1.46 -5.54000003,-3.53 -4.48000003,-7.32 1.11000003,-3.97 4.35000003,-5.47 8.15000003,-5.01 2.0400002,0.25 4.5000002,1.09 5.8100002,2.54 2.89,3.19 4.63,1.66 6.85,-0.6 6.42,-6.55 12.94,-12.9999998 19.45,-19.4599998 0.91,-0.9 1.98,-1.63 2.98,-2.44000003 0.34,0.26000003 0.66,0.51000003 0.99,0.77000003 z M 1.7843358,26.690258 c 4.93,4.44 9.3200002,4.81 12.2700002,1.27 -4.4200002,-4.04 -8.1700002,-4.51 -12.2700002,-1.27 z"
         class="shape-path" />
      <circle
         style="fill:#ffff00;fill-opacity:0.5;stroke:#0000ff"
         id="circle4-1"
         r="6.3292875"
         cy="21.294193"
         cx="23.863232" />
      <circle
         style="fill:#ffff00;fill-opacity:0.5;stroke:#0000ff"
         id="circle6-3"
         r="6.9778194"
         cy="26.909435"
         cx="12.334811" />
      <circle
         style="fill:#ffff00;fill-opacity:0.5;stroke:#0000ff"
         id="circle8"
         r="5.3957095"
         cy="12.527213"
         cx="32.774101" />
      <circle
         style="fill:#ffff00;fill-opacity:0.5;stroke:#0000ff"
         id="circle10"
         r="4.6469564"
         cy="4.3419685"
         cx="40.608234" />
      <circle
         style="fill:#ffff00;fill-opacity:0.5;stroke:#0000ff"
         id="circle12"
         r="7.2063403"
         cy="27.940651"
         cx="6.9013524" />
    </g>
  </g>
</svg>
